<svg width="43" height="37" viewBox="0 0 43 37" fill="none" xmlns="http://www.w3.org/2000/svg">
<path d="M23.7744 26.25C23.6494 24.25 22.6119 19.9125 20.2119 19.3125" stroke="#8A9B6E" stroke-width="0.375"/>
<path d="M3.46371 9.68808C3.46371 9.68808 8.30842 17.8437 11.7387 19.8242C15.1689 21.8046 18.2896 22.8215 20.27 19.3912C22.2505 15.961 20.5968 13.2471 17.1665 11.2666C13.7363 9.28614 3.46371 9.68808 3.46371 9.68808Z" fill="#567361"/>
<mask id="mask0_94_400" style="mask-type:alpha" maskUnits="userSpaceOnUse" x="0" y="9" width="27" height="19">
<path d="M26.4692 22.9712L2.82898 9.32248L1.71574e-05 13.9351L23.6403 27.5838L26.4692 22.9712Z" fill="#D9D9D9"/>
</mask>
<g mask="url(#mask0_94_400)">
<path d="M3.37975 9.65318C3.37975 9.65318 8.23137 17.8757 11.678 19.8656C15.1246 21.8555 18.2624 22.8731 20.2662 19.4025C22.2699 15.932 20.6136 13.196 17.167 11.2061C13.7204 9.21619 3.37975 9.65318 3.37975 9.65318Z" fill="#354733"/>
</g>
<path d="M25.0781 26.4375C25.1719 24.9375 25.95 21.6844 27.75 21.2344" stroke="#8A9B6E" stroke-width="0.28125"/>
<path d="M40.3108 14.0158C40.3108 14.0158 36.6773 20.1325 34.1046 21.6179C31.5319 23.1032 29.1914 23.8659 27.7061 21.2932C26.2207 18.7205 27.461 16.6851 30.0337 15.1997C32.6064 13.7144 40.3108 14.0158 40.3108 14.0158Z" fill="#587462"/>
<mask id="mask1_94_400" style="mask-type:alpha" maskUnits="userSpaceOnUse" x="23" y="13" width="20" height="15">
<path d="M23.0571 23.9785L40.7873 13.742L42.909 17.2014L25.1789 27.438L23.0571 23.9785Z" fill="#D9D9D9"/>
</mask>
<g mask="url(#mask1_94_400)">
<path d="M40.3745 13.9898C40.3745 13.9898 36.7358 20.1567 34.1508 21.6491C31.5659 23.1415 29.2125 23.9047 27.7097 21.3018C26.2069 18.6989 27.4491 16.6469 30.034 15.1544C32.619 13.662 40.3745 13.9898 40.3745 13.9898Z" fill="#354733"/>
</g>
<path d="M24.5 26C24.375 24 24.5 15.25 24.5 15.25" stroke="#8A9B6E" stroke-width="0.375"/>
<path d="M24.6133 1.15673C24.6133 1.15673 28.0937 7.36183 28.0937 10.3325C28.0937 13.3032 27.584 15.7114 24.6133 15.7114C21.6426 15.7114 20.5 13.6196 20.5 10.6489C20.5 7.67824 24.6133 1.15673 24.6133 1.15673Z" fill="#8A9B6E"/>
<mask id="mask2_94_400" style="mask-type:alpha" maskUnits="userSpaceOnUse" x="24" y="0" width="5" height="22">
<path d="M24.6143 21.0806L24.6143 0.607508L28.6711 0.499766L28.6711 20.9728L24.6143 21.0806Z" fill="#D9D9D9"/>
</mask>
<g mask="url(#mask2_94_400)">
<path d="M24.6225 1.08885C24.6225 1.08885 28.1438 7.32351 28.1438 10.3084C28.1438 13.2932 27.6281 15.7129 24.6225 15.7129C21.6169 15.7129 20.4609 13.6111 20.4609 10.6263C20.4609 7.64143 24.6225 1.08885 24.6225 1.08885Z" fill="#354733"/>
</g>
<rect x="16.875" y="25.875" width="15" height="3.75" fill="#D54B01"/>
<rect x="16.875" y="36" width="15" height="0.75" fill="#D54B01"/>
<path d="M18.375 29.625H30.375L30 32.25H18.75L18.375 29.625Z" fill="#4C210D"/>
<path d="M19.125 32.25H29.625L29.4277 33.75H19.3559L19.125 32.25Z" fill="#D54B01"/>
<path d="M19.5 33.75H29.25L28.9453 36H19.8047L19.5 33.75Z" fill="#50210B"/>
</svg>
