<svg width="47" height="54" viewBox="0 0 47 54" fill="none" xmlns="http://www.w3.org/2000/svg">
<path d="M5.08355 52.28V43.064H6.36755V43.616C6.51955 43.44 6.70355 43.288 6.91955 43.16C7.13555 43.032 7.39155 42.968 7.68755 42.968C8.04755 42.968 8.33155 43.064 8.53955 43.256C8.75555 43.44 8.91555 43.676 9.01955 43.964C9.12355 44.244 9.19155 44.532 9.22355 44.828C9.25555 45.116 9.27155 45.364 9.27155 45.572V47.252C9.27155 47.74 9.22355 48.204 9.12755 48.644C9.03155 49.076 8.85555 49.428 8.59955 49.7C8.35155 49.964 7.99955 50.096 7.54355 50.096C7.29555 50.096 7.07555 50.036 6.88355 49.916C6.69155 49.788 6.51955 49.644 6.36755 49.484V52.28H5.08355ZM7.29155 49.088C7.51555 49.088 7.67555 49.008 7.77155 48.848C7.86755 48.68 7.92755 48.456 7.95155 48.176C7.97555 47.896 7.98755 47.588 7.98755 47.252V45.572C7.98755 45.284 7.97155 45.02 7.93955 44.78C7.90755 44.532 7.83955 44.336 7.73555 44.192C7.63155 44.048 7.46755 43.976 7.24355 43.976C7.07555 43.976 6.91555 44.012 6.76355 44.084C6.61155 44.156 6.47955 44.24 6.36755 44.336V48.776C6.48755 48.864 6.62355 48.94 6.77555 49.004C6.92755 49.06 7.09955 49.088 7.29155 49.088ZM10.559 50V40.28H11.843V50H10.559ZM14.4292 50.096C14.1572 50.096 13.9172 50.02 13.7092 49.868C13.5012 49.708 13.3372 49.508 13.2172 49.268C13.0972 49.02 13.0372 48.76 13.0372 48.488C13.0372 48.056 13.1092 47.692 13.2532 47.396C13.3972 47.1 13.5932 46.852 13.8412 46.652C14.0972 46.444 14.3892 46.264 14.7172 46.112C15.0532 45.96 15.4052 45.812 15.7732 45.668V45.176C15.7732 44.896 15.7572 44.664 15.7252 44.48C15.6932 44.296 15.6252 44.16 15.5212 44.072C15.4252 43.976 15.2772 43.928 15.0772 43.928C14.9012 43.928 14.7572 43.968 14.6452 44.048C14.5412 44.128 14.4652 44.244 14.4172 44.396C14.3692 44.54 14.3452 44.712 14.3452 44.912V45.26L13.0732 45.212C13.0892 44.444 13.2652 43.88 13.6012 43.52C13.9372 43.152 14.4572 42.968 15.1612 42.968C15.8492 42.968 16.3372 43.156 16.6252 43.532C16.9132 43.908 17.0572 44.452 17.0572 45.164V48.332C17.0572 48.548 17.0612 48.756 17.0692 48.956C17.0852 49.156 17.1012 49.344 17.1172 49.52C17.1412 49.688 17.1612 49.848 17.1772 50H16.0012C15.9772 49.872 15.9452 49.712 15.9052 49.52C15.8732 49.32 15.8492 49.14 15.8332 48.98C15.7532 49.252 15.5972 49.508 15.3652 49.748C15.1412 49.98 14.8292 50.096 14.4292 50.096ZM14.9332 48.992C15.0612 48.992 15.1812 48.956 15.2932 48.884C15.4052 48.812 15.5052 48.732 15.5932 48.644C15.6812 48.548 15.7412 48.472 15.7732 48.416V46.448C15.5732 46.56 15.3852 46.672 15.2092 46.784C15.0332 46.896 14.8772 47.016 14.7412 47.144C14.6132 47.264 14.5092 47.404 14.4292 47.564C14.3572 47.716 14.3212 47.892 14.3212 48.092C14.3212 48.372 14.3732 48.592 14.4772 48.752C14.5812 48.912 14.7332 48.992 14.9332 48.992ZM18.2906 50V43.064H19.5746V43.748C19.8066 43.532 20.0626 43.348 20.3426 43.196C20.6226 43.044 20.9306 42.968 21.2666 42.968C21.5466 42.968 21.7586 43.04 21.9026 43.184C22.0546 43.328 22.1586 43.508 22.2146 43.724C22.2786 43.94 22.3106 44.16 22.3106 44.384V50H21.0266V44.756C21.0266 44.508 20.9906 44.316 20.9186 44.18C20.8466 44.044 20.6986 43.976 20.4746 43.976C20.3306 43.976 20.1786 44.02 20.0186 44.108C19.8666 44.188 19.7186 44.288 19.5746 44.408V50H18.2906ZM25.412 50.096C25.052 50.096 24.76 50.028 24.536 49.892C24.32 49.756 24.16 49.564 24.056 49.316C23.96 49.068 23.912 48.776 23.912 48.44V43.916H23.18V43.064H23.912V41.036H25.196V43.064H26.312V43.916H25.196V48.356C25.196 48.628 25.24 48.824 25.328 48.944C25.416 49.056 25.584 49.112 25.832 49.112C25.896 49.112 25.968 49.108 26.048 49.1C26.136 49.092 26.22 49.084 26.3 49.076V50.024C26.14 50.048 25.992 50.064 25.856 50.072C25.72 50.088 25.572 50.096 25.412 50.096ZM27.3634 50V40.28H29.7754C30.3594 40.28 30.8234 40.388 31.1674 40.604C31.5194 40.812 31.7754 41.116 31.9354 41.516C32.0954 41.916 32.1754 42.4 32.1754 42.968C32.1754 43.48 32.0834 43.924 31.8994 44.3C31.7234 44.676 31.4594 44.968 31.1074 45.176C30.7554 45.376 30.3154 45.476 29.7874 45.476H28.7194V50H27.3634ZM28.7194 44.504H29.3434C29.7354 44.504 30.0434 44.46 30.2674 44.372C30.4914 44.284 30.6514 44.132 30.7474 43.916C30.8434 43.692 30.8914 43.38 30.8914 42.98C30.8914 42.516 30.8554 42.16 30.7834 41.912C30.7194 41.664 30.5794 41.492 30.3634 41.396C30.1474 41.3 29.8114 41.252 29.3554 41.252H28.7194V44.504ZM34.017 50.096C33.745 50.096 33.533 50.024 33.381 49.88C33.229 49.736 33.121 49.556 33.057 49.34C33.001 49.124 32.973 48.904 32.973 48.68V43.064H34.257V48.296C34.257 48.544 34.293 48.74 34.365 48.884C34.437 49.02 34.585 49.088 34.809 49.088C34.953 49.088 35.101 49.048 35.253 48.968C35.413 48.88 35.565 48.776 35.709 48.656V43.064H36.993V50H35.709V49.316C35.485 49.532 35.229 49.716 34.941 49.868C34.661 50.02 34.353 50.096 34.017 50.096ZM38.3422 50V43.064H39.6262V44.048C39.8822 43.624 40.1382 43.34 40.3942 43.196C40.6502 43.052 40.9062 42.98 41.1622 42.98C41.1942 42.98 41.2222 42.98 41.2462 42.98C41.2782 42.98 41.3182 42.984 41.3662 42.992V44.408C41.2702 44.368 41.1582 44.336 41.0302 44.312C40.9102 44.28 40.7862 44.264 40.6582 44.264C40.4582 44.264 40.2742 44.312 40.1062 44.408C39.9462 44.496 39.7862 44.672 39.6262 44.936V50H38.3422ZM44.0817 50.096C43.5377 50.096 43.1177 49.992 42.8217 49.784C42.5257 49.568 42.3177 49.256 42.1977 48.848C42.0857 48.432 42.0297 47.924 42.0297 47.324V45.74C42.0297 45.124 42.0897 44.612 42.2097 44.204C42.3297 43.796 42.5377 43.488 42.8337 43.28C43.1377 43.072 43.5537 42.968 44.0817 42.968C44.6657 42.968 45.0937 43.088 45.3657 43.328C45.6457 43.568 45.8297 43.916 45.9177 44.372C46.0057 44.82 46.0497 45.36 46.0497 45.992V46.556H43.3137V47.948C43.3137 48.228 43.3377 48.456 43.3857 48.632C43.4417 48.808 43.5257 48.94 43.6377 49.028C43.7577 49.108 43.9097 49.148 44.0937 49.148C44.2857 49.148 44.4297 49.104 44.5257 49.016C44.6297 48.92 44.6977 48.788 44.7297 48.62C44.7697 48.444 44.7897 48.24 44.7897 48.008V47.588H46.0377V47.852C46.0377 48.548 45.8897 49.096 45.5937 49.496C45.2977 49.896 44.7937 50.096 44.0817 50.096ZM43.3137 45.86H44.7897V45.236C44.7897 44.948 44.7737 44.708 44.7417 44.516C44.7097 44.316 44.6417 44.168 44.5377 44.072C44.4417 43.968 44.2857 43.916 44.0697 43.916C43.8617 43.916 43.7017 43.964 43.5897 44.06C43.4857 44.156 43.4137 44.32 43.3737 44.552C43.3337 44.776 43.3137 45.088 43.3137 45.488V45.86Z" fill="black"/>
<path d="M23.7744 25.75C23.6494 23.75 22.6119 19.4125 20.2119 18.8125" stroke="#8A9B6E" stroke-width="0.375"/>
<path d="M3.46371 9.18808C3.46371 9.18808 8.30842 17.3437 11.7387 19.3242C15.1689 21.3046 18.2896 22.3215 20.27 18.8912C22.2505 15.461 20.5968 12.7471 17.1665 10.7666C13.7363 8.78614 3.46371 9.18808 3.46371 9.18808Z" fill="#567361"/>
<mask id="mask0_96_403" style="mask-type:alpha" maskUnits="userSpaceOnUse" x="0" y="8" width="27" height="20">
<path d="M26.4692 22.4712L2.82898 8.82248L1.71574e-05 13.4351L23.6403 27.0838L26.4692 22.4712Z" fill="#D9D9D9"/>
</mask>
<g mask="url(#mask0_96_403)">
<path d="M3.37975 9.15318C3.37975 9.15318 8.23137 17.3757 11.678 19.3656C15.1246 21.3555 18.2624 22.3731 20.2662 18.9025C22.2699 15.432 20.6136 12.696 17.167 10.7061C13.7204 8.71619 3.37975 9.15318 3.37975 9.15318Z" fill="#354733"/>
</g>
<path d="M25.0781 25.9375C25.1719 24.4375 25.95 21.1844 27.75 20.7344" stroke="#8A9B6E" stroke-width="0.28125"/>
<path d="M40.3108 13.5158C40.3108 13.5158 36.6773 19.6325 34.1046 21.1179C31.5319 22.6032 29.1914 23.3659 27.7061 20.7932C26.2207 18.2205 27.461 16.1851 30.0337 14.6997C32.6064 13.2144 40.3108 13.5158 40.3108 13.5158Z" fill="#587462"/>
<mask id="mask1_96_403" style="mask-type:alpha" maskUnits="userSpaceOnUse" x="23" y="13" width="20" height="14">
<path d="M23.0571 23.4785L40.7873 13.242L42.909 16.7014L25.1789 26.938L23.0571 23.4785Z" fill="#D9D9D9"/>
</mask>
<g mask="url(#mask1_96_403)">
<path d="M40.3745 13.4898C40.3745 13.4898 36.7358 19.6567 34.1508 21.1491C31.5659 22.6415 29.2125 23.4047 27.7097 20.8018C26.2069 18.1989 27.4491 16.1469 30.034 14.6544C32.619 13.162 40.3745 13.4898 40.3745 13.4898Z" fill="#354733"/>
</g>
<path d="M24.5 25.5C24.375 23.5 24.5 14.75 24.5 14.75" stroke="#8A9B6E" stroke-width="0.375"/>
<path d="M24.6133 0.656735C24.6133 0.656735 28.0937 6.86183 28.0937 9.83252C28.0937 12.8032 27.584 15.2114 24.6133 15.2114C21.6426 15.2114 20.5 13.1196 20.5 10.1489C20.5 7.17824 24.6133 0.656735 24.6133 0.656735Z" fill="#8A9B6E"/>
<mask id="mask2_96_403" style="mask-type:alpha" maskUnits="userSpaceOnUse" x="24" y="0" width="5" height="21">
<path d="M24.6143 20.5806L24.6143 0.107508L28.6711 -0.000234466L28.6711 20.4728L24.6143 20.5806Z" fill="#D9D9D9"/>
</mask>
<g mask="url(#mask2_96_403)">
<path d="M24.6225 0.588849C24.6225 0.588849 28.1438 6.82351 28.1438 9.80836C28.1438 12.7932 27.6281 15.2129 24.6225 15.2129C21.6169 15.2129 20.4609 13.1111 20.4609 10.1263C20.4609 7.14143 24.6225 0.588849 24.6225 0.588849Z" fill="#354733"/>
</g>
<rect x="16.875" y="25.375" width="15" height="3.75" fill="#D54B01"/>
<rect x="16.875" y="35.5" width="15" height="0.75" fill="#D54B01"/>
<path d="M18.375 29.125H30.375L30 31.75H18.75L18.375 29.125Z" fill="#4C210D"/>
<path d="M19.125 31.75H29.625L29.4277 33.25H19.3559L19.125 31.75Z" fill="#D54B01"/>
<path d="M19.5 33.25H29.25L28.9453 35.5H19.8047L19.5 33.25Z" fill="#50210B"/>
</svg>
